<svg xmlns="http://www.w3.org/2000/svg" viewBox="0 0 137.71 99.53"><defs><style>.cls-1{fill:#fff;}.cls-2{fill:#7c6c55;}.cls-3{fill:#efb04b;}.cls-4{fill:#ffc5c5;}.cls-5,.cls-6,.cls-8{fill:none;stroke:#3d3636;stroke-linecap:round;stroke-linejoin:round;}.cls-5{stroke-width:3px;}.cls-6{stroke-width:4px;}.cls-7{fill:#3d3636;}</style></defs><title>gatito</title><g id="Capa_2" data-name="Capa 2"><g id="Capa_4" data-name="Capa 4"><path class="cls-1" d="M120.73,5.9c.14-2.6-1.46-5.26-4.81-5.17-5.7.17-10.73,2.2-15.58,5.09-4.39,2.6-9,5.35-11.45,10-.11.21-.18.42-.27.63-4.35-.8-8.84-1.15-13-1.5-7.57-.65-18-1.16-24.57,3.34-3.34-5.78-10-9.87-15.8-12.44a32,32,0,0,0-8.93-2.61C24.47-1.6,16.14,1.14,17,7a.59.59,0,0,0,0,.14,9.82,9.82,0,0,0-.76,2.26C14.43,18,19.87,25.33,24.66,31.89a53.85,53.85,0,0,0-3,15.7c0,.56-.07,1.13-.1,1.69a25.94,25.94,0,0,0-1.93,6.14c-5,6.5-4.43,18.14-1.13,25,1.89,3.94,5.29,6.53,9.25,8.44a33.38,33.38,0,0,0,12.36,5.06,4.54,4.54,0,0,0,4.08,2.2,6.28,6.28,0,0,0,.78-.07,5,5,0,0,0,2.43.62c3.68,0,7.42,0,11.18-.08a4.35,4.35,0,0,0,3.56,1.34c4-.19,8.23-.19,12.57-.26a5,5,0,0,0,2.16.47,5.23,5.23,0,0,0,2.09-.42c.57,0,1.11-.11,1.66-.21,9.71-.41,19.44-1.72,27.2-6.68C118.07,84.24,124,69.21,118.3,57.88c-.46-8.23-3.22-16-5.31-24l.07-.08a33.76,33.76,0,0,0,5.83-14.71c.4-1.13.77-2.27,1.06-3.43a11.52,11.52,0,0,0,.06-5.41,20.9,20.9,0,0,0,.68-2.53A5.54,5.54,0,0,0,120.73,5.9Z"/></g><g id="Capa_6" data-name="Capa 6"><path class="cls-2" d="M31.59,93.85l.15,0A27.38,27.38,0,0,1,42.51,95a7.22,7.22,0,0,0,.27-2.14c-.07-3.6-2.72-6.51-5.64-8.28a17.91,17.91,0,0,0-9.36-2.8,8,8,0,0,0-6.38,3.61A6.16,6.16,0,0,1,23.81,88c.15.29.31.57.48.85a6.35,6.35,0,0,1,2.95,1.75A20.83,20.83,0,0,0,31.59,93.85Z"/><path class="cls-3" d="M105.21,93a6.85,6.85,0,0,1,2.44-1.52c5.25-2,10.8-7.26,12.19-12.71a19.43,19.43,0,0,1,1.73-4.61,9.7,9.7,0,0,0-5.06-1.32c-3.63,0-7.19,2-9.81,4.38-3.13,2.91-3.87,6.84-3.79,10.94,0,1.56.68,4,1.59,4.84C104.71,93.48,104.92,92.61,105.21,93Z"/><path class="cls-4" d="M40.47,54.87c-6.43,0-6.44,10,0,10S46.92,54.87,40.47,54.87Z"/><path class="cls-4" d="M98.93,55.76c-6.44,0-6.45,10,0,10S105.37,55.76,98.93,55.76Z"/><path class="cls-4" d="M39.61,17.15a21.35,21.35,0,0,0-12.35-5.57,1.35,1.35,0,0,0-1.45,1.19,20.11,20.11,0,0,0,2.93,13.1,1.36,1.36,0,0,0,2.22.07,22.88,22.88,0,0,1,8.33-6.6A1.34,1.34,0,0,0,39.61,17.15Z"/><path class="cls-4" d="M99.12,17.15a21.31,21.31,0,0,1,12.34-5.57,1.35,1.35,0,0,1,1.45,1.19A20,20,0,0,1,110,25.87a1.36,1.36,0,0,1-2.22.07,22.69,22.69,0,0,0-8.33-6.6A1.34,1.34,0,0,1,99.12,17.15Z"/><path class="cls-3" d="M48.69,11.28a5.71,5.71,0,0,1-3-2.56,10.93,10.93,0,0,0-1.19-.58A35.35,35.35,0,0,1,37.74,5a8.52,8.52,0,0,0,3.17,9.17,11,11,0,0,0,11.46,1.4A6,6,0,0,1,48.69,11.28Z"/><path class="cls-2" d="M117.43,44.08l-.47-.46a6.28,6.28,0,0,1-1.85-4.86c-5.31,1.08-5,9.89,1.1,9.89a5.08,5.08,0,0,0,2.06-.42A38.11,38.11,0,0,1,117.43,44.08Z"/></g><g id="Capa_3" data-name="Capa 3"><path class="cls-5" d="M67.41,98C-2,99.9,19.18,54.25,19.18,54.25l5.15-20.58C14,22.74,17.25,1.52,17.25,1.52,42.33.88,50.69,16.31,50.69,16.31"/><path class="cls-6" d="M35.26,49.75h0a28.73,28.73,0,0,0,21.86,0h0"/><line class="cls-5" x1="1.5" y1="47.49" x2="23.36" y2="57.78"/><line class="cls-5" x1="23.36" y1="69.36" x2="1.5" y2="75.79"/><path class="cls-5" d="M70,98c69.44,1.93,48.55-43.4,48.55-43.4L113.38,34c10.29-10.93,7.08-32.15,7.08-32.15C95.38,1.2,87,16.63,87,16.63"/><path class="cls-6" d="M102.45,50.07h0a28.73,28.73,0,0,1-21.86,0h0"/><line class="cls-5" x1="136.21" y1="47.82" x2="114.35" y2="58.1"/><line class="cls-5" x1="114.35" y1="69.68" x2="136.21" y2="76.11"/><line class="cls-5" x1="67.41" y1="97.97" x2="69.98" y2="97.97"/><path class="cls-5" d="M44.15,18.34c9.73-2.88,28.5-6.43,48.74.41"/><path class="cls-7" d="M66.65,59h4.7A.8.8,0,0,1,72,60.32l-2.35,2.94a.8.8,0,0,1-1.24,0L66,60.32A.8.8,0,0,1,66.65,59Z"/><path class="cls-5" d="M84.5,67.53s-2.1,6-14.72,2H68.72c-12.62,4-14.72-2-14.72-2"/><ellipse class="cls-7" cx="52" cy="32.53" rx="2.5" ry="1.5"/><ellipse class="cls-7" cx="83" cy="32.53" rx="2.5" ry="1.5"/><line class="cls-8" x1="35" y1="61.53" x2="39" y2="58.53"/><line class="cls-8" x1="39.48" y1="61.41" x2="43.48" y2="58.41"/><line class="cls-8" x1="95.04" y1="61.43" x2="99.04" y2="58.43"/><line class="cls-8" x1="99.52" y1="61.31" x2="103.52" y2="58.31"/></g></g></svg>