<svg xmlns="http://www.w3.org/2000/svg" viewBox="0 0 89.9 90.11"><defs><style>.cls-1{fill:#fff;}.cls-2{fill:#efb04b;}.cls-3{fill:#7c6c55;}.cls-4{fill:#3d3636;}.cls-5{fill:#ffc5c5;}.cls-6,.cls-7,.cls-8{fill:none;stroke:#3d3636;stroke-linecap:round;stroke-linejoin:round;}.cls-6{stroke-width:3px;}.cls-7{stroke-width:2px;}</style></defs><title>papel_1</title><g id="Capa_2" data-name="Capa 2"><g id="Capa_4" data-name="Capa 4"><path class="cls-1" d="M77.82,32.72a4.64,4.64,0,0,0-3.52-1.44,5.2,5.2,0,0,0-1.46.21,5.4,5.4,0,0,0-1.51-.21,4.88,4.88,0,0,0-2.3.53,3.48,3.48,0,0,0-.74-.64,3.61,3.61,0,0,0-.72-.51l.36-.62c3.43-3.1,6.6-7.06,7.22-11A7,7,0,0,1,72,17.32a8.81,8.81,0,0,1-2.65-5.16,6.34,6.34,0,0,1-4.81-2.63,35.72,35.72,0,0,0-5.77,1.86,27.21,27.21,0,0,0-5.67,2.95c-.61-6.42-2.82-12.65-9.78-12.91-7.18-.26-11.53,4.78-13.76,10.81C25.37,9,20.43,7.37,15.1,10.7a10.06,10.06,0,0,0-4.46,10.43,7.55,7.55,0,0,0,4.11,6.06c-3.49.94-.55,1.37-3.69,1.92-1.05-.93-3.53-.72-5.33,0C2.46,30.31,1.36,34.26,1.06,38c-.28,3.42,1.16,3.25,3,6.11,1.94,3,3.31,6.26,6,8.46a4.77,4.77,0,0,0,2.15,3.34c.13.3.27.6.41.9s0,.37,0,.56a9.55,9.55,0,0,0,.74,4.24l.77,3.94a4.82,4.82,0,0,0,4.19,3.59,6.18,6.18,0,0,0,1,.57l.05,0,.08,0a30.32,30.32,0,0,0-.74,6.65c0,1.16,0,2.32,0,3.47,0,.77,0,1.55.1,2.32a7,7,0,0,0,0,.94c-.08.22-.14.44-.2.67a4.25,4.25,0,0,0,0,2.64,4.59,4.59,0,0,0,4.67,3.65h32a5,5,0,0,0,2.3-.53,4.62,4.62,0,0,0,1-.39,4.06,4.06,0,0,0,2.49-5.61c-.07-.17-.11-.36-.17-.54a3.5,3.5,0,0,0-.2-.65c-.7-3,0-6.7-.27-9.68,0-.33-.08-.66-.11-1A10,10,0,0,0,63,69.13c2.2-1.11,3.28-3.72,3.34-6.64,1.05-2.44,1.23-5.54,2.56-7.64,1.12-1.79,4.25-2.67,6-4.16.29-.26.56-.55.84-.83a7.8,7.8,0,0,0,1-.35c4.92-2.22,8-7.79,5.26-12.93A8.59,8.59,0,0,0,77.82,32.72Z"/><path class="cls-2" d="M30.57,81.13a8.37,8.37,0,0,0-2.72-2.64,7.61,7.61,0,0,0-.7-.35l-.27-.5a5.48,5.48,0,0,0-3.67-3c-2.56-.51-5.52.72-6.15,3.49a5.72,5.72,0,0,0,.61,4,1.66,1.66,0,0,0-.06.21,5,5,0,0,0,.5,3.85,5.91,5.91,0,0,0,3,2.3,11.54,11.54,0,0,0,5.83,1.25C31.11,89.2,32.75,84.48,30.57,81.13Z"/><path class="cls-3" d="M56.1,73.55A5,5,0,0,0,50,77a5.36,5.36,0,0,0-.1,1.86,7.25,7.25,0,0,0-.78.17,5,5,0,0,0,2.47,9.69l.61.16a12.58,12.58,0,0,0,3.38.61,7.23,7.23,0,0,0,6-4C64.12,81.05,60.73,75,56.1,73.55Z"/><path class="cls-4" d="M72.06,17.4a3.66,3.66,0,0,0-.6-1.85l-.78-1a5,5,0,0,0-2.21-1.28l-1.32-.18a5,5,0,0,0-2.53.68l-.35.18a3.65,3.65,0,0,0-1.41,1.29,3.72,3.72,0,0,0-.89,1.7,3.75,3.75,0,0,0-.09,2,3.75,3.75,0,0,0,.59,1.86l.78,1a5.05,5.05,0,0,0,2.21,1.29l1.33.18a5,5,0,0,0,2.52-.69l.36-.17a3.86,3.86,0,0,0,1.4-1.29,3.83,3.83,0,0,0,.9-1.7A4,4,0,0,0,72.06,17.4Z"/><path class="cls-1" d="M69.93,12a6.18,6.18,0,0,0-3.05-.64,5.47,5.47,0,0,0-1.6-.22,5.19,5.19,0,0,0-3.54,1.46,5.05,5.05,0,0,0-1.46,3.54A5.82,5.82,0,0,0,60.65,18a4.57,4.57,0,0,0,.07,2.3,6,6,0,0,0,.82,1.64A3.81,3.81,0,0,0,62,23.07c1.33,2.07,4.47,3.38,6.73,1.86a4.48,4.48,0,0,0,2.31-1.27l.79-1a4.85,4.85,0,0,0,.52-1.28,7.7,7.7,0,0,0,.79-1.82C73.94,16.8,72.66,13.14,69.93,12Z"/></g><g id="Capa_6" data-name="Capa 6"><ellipse class="cls-5" cx="42" cy="15.61" rx="5.08" ry="6" transform="translate(-1.15 3.53) rotate(-4.75)"/><ellipse class="cls-5" cx="23.2" cy="20.08" rx="5.08" ry="6" transform="translate(-5.2 8.46) rotate(-18.62)"/><ellipse class="cls-5" cx="11.82" cy="38.33" rx="5.08" ry="6" transform="translate(-26.28 25.79) rotate(-54.65)"/><ellipse class="cls-5" cx="62.7" cy="21.05" rx="6" ry="5.08" transform="translate(6.13 55.32) rotate(-49.76)"/><ellipse class="cls-5" cx="72.04" cy="40.51" rx="6" ry="4.51" transform="translate(-10.04 50.17) rotate(-36.06)"/><ellipse class="cls-5" cx="37.03" cy="49.86" rx="13.5" ry="10" transform="translate(-24.49 58.38) rotate(-61.28)"/><ellipse class="cls-5" cx="43.84" cy="49.75" rx="10" ry="13.5" transform="translate(-18.44 27) rotate(-28.55)"/><circle class="cls-1" cx="23.06" cy="16.11" r="1"/><circle class="cls-1" cx="11.06" cy="35.11" r="1"/><circle class="cls-1" cx="43.06" cy="12.11" r="1"/><circle class="cls-1" cx="64.06" cy="18.11" r="1"/><circle class="cls-1" cx="75.06" cy="38.11" r="1"/></g><g id="Capa_3" data-name="Capa 3"><path class="cls-6" d="M70.56,51.61c-.93.25-1,3-1,4a20.09,20.09,0,0,1-7.07,14.22,2.82,2.82,0,0,0-1,2.17V85.76a2.86,2.86,0,0,1-2.85,2.85H21.18a2.85,2.85,0,0,1-2.85-2.85V70.85a2.89,2.89,0,0,0-.84-2A20.46,20.46,0,0,1,11.69,54a2.8,2.8,0,0,0-1.07-2.25C7,48.8-1.44,40.61,2.56,32.61c2-4,6-4,8.14-3.72,1,.12,2.86.72,3.86.72,0,0-9-12,0-19s16,4,16,4-1-11.63,10-13c8-1,13,5,12,14,0,0,5-7.14,13-6,7,1,14,11,2,22,0,0,8.77-3.34,13,3C82.56,37.61,84.37,47.8,70.56,51.61Z"/><path class="cls-7" d="M12.06,6.11a10.8,10.8,0,0,0-4,8"/><path class="cls-7" d="M85.06,31.11s6,3,3,11"/><path class="cls-8" d="M32.56,71.61h0a24.17,24.17,0,0,0,16.1.3l.9-.3"/></g></g></svg>