<svg xmlns="http://www.w3.org/2000/svg" viewBox="0 0 75.33 78.32"><defs><style>.cls-1{fill:#fff;}.cls-2{fill:#ffc5c5;}.cls-3{fill:#564c4c;}.cls-4{fill:#999;}.cls-5,.cls-6{fill:none;stroke:#3d3636;stroke-linecap:round;stroke-linejoin:round;}.cls-5{stroke-width:3px;}.cls-6{stroke-width:2px;}</style></defs><title>piedra</title><g id="Capa_2" data-name="Capa 2"><g id="Capa_4" data-name="Capa 4"><path class="cls-1" d="M66.17,36.32c.07-3.78-1.12-6.24-1-10,.07-2,.28-4.24-1-5a22,22,0,0,0-2-5c-2.48-4.6-4.14-6.79-9-9-5.34-2.44-10.33-4.07-16-3-5.48,1-10.08,1.87-11.47,6.87,0,0-3.51,2.13-3.53,2.13-.12-.48,1.18-1.57,1-2-3-6.95-8.79-12.92-15.83-9.16-3,1.6-5.21,4.08-5.63,7.52a9.31,9.31,0,0,0,1,5.4,5.71,5.71,0,0,0,.1,4.81,31.33,31.33,0,0,1,2.59,9.93A5.81,5.81,0,0,0,7,33.4c-.09,2-.25,3.9-.53,5.84C5.89,43.51,3.86,48,4.24,52.35c.3,3.44,2.19,5.45,4.46,7.58a5.45,5.45,0,0,0,.75,1.91,4.94,4.94,0,0,0,2.14,3.93,26.41,26.41,0,0,0-.08,4.34c-1.2,3,.27,7.1,4.42,7.1a5,5,0,0,0,2.33-.54c1.23.09,2.49.07,3.68.11,9.85.33,20.69-2,30.23.8,4,1.19,4.52-2.7,4-6.26-.26-1.84.27-3.16,0-5-.05-.38.11-3.69,0-4,3.65-3.35,3.38-5.79,6-10,1.09-1.74,2.8-2.67,2-4,.85-1.37.38-3.49,1-5C66.38,40.37,66.11,39.51,66.17,36.32Z"/></g><g id="Capa_6" data-name="Capa 6"><ellipse class="cls-2" cx="12.78" cy="11.91" rx="5.5" ry="6.5" transform="translate(-2.54 3.52) rotate(-14.27)"/><path class="cls-3" d="M38.17,75.82c0,.83,6.94,1.5,15.5,1.5,1.09,0,2.14,0,3.16,0,0-.12,0-.24,0-.36a7.43,7.43,0,0,1-.25-2.57q-1.43,0-2.94,0"/><circle class="cls-1" cx="12.67" cy="7.82" r="1"/><path class="cls-4" d="M12.17,73.32l.74-1.47a.3.3,0,0,1,.53,0l.47.94a.3.3,0,0,0,.53,0l.47-.94a.3.3,0,0,1,.53,0l.5,1a.3.3,0,0,0,.52,0l1.43-2.15a.29.29,0,0,1,.51,0l.77,1.54,1-1,.74,1.47a.3.3,0,0,0,.53,0l.47-.94a.3.3,0,0,1,.53,0l.73,1.47.72-2.16a.29.29,0,0,1,.56,0l.72,2.16.74-1.47a.3.3,0,0,1,.53,0l.73,1.47.72-2.16a.29.29,0,0,1,.56,0l.72,2.16.74-1.47a.3.3,0,0,1,.53,0l.47.94a.3.3,0,0,0,.53,0l.47-.94a.3.3,0,0,1,.53,0l.5,1a.3.3,0,0,0,.52,0l1.37-2.07a.3.3,0,0,1,.53.08l.81,2.42.79-.79a.29.29,0,0,1,.42,0l.79.79.72-2.16a.29.29,0,0,1,.56,0l.72,2.16.79-.79a.29.29,0,0,1,.42,0l.79.79.74-1.47a.3.3,0,0,1,.53,0l.73,1.47L45,70.9a.3.3,0,0,1,.53-.08l1.38,2.07a.3.3,0,0,0,.51,0l.51-1a.3.3,0,0,1,.53,0l.73,1.47.72-2.16a.29.29,0,0,1,.56,0l.72,2.16.74-1.47a.3.3,0,0,1,.53,0l.47.94a.3.3,0,0,0,.53,0l.73-1.47L55.1,76a.3.3,0,0,1-.28.36l-42.34,1a.3.3,0,0,1-.31-.3V73.32"/></g><g id="Capa_3" data-name="Capa 3"><path class="cls-5" d="M25.67,19.82c-11-14,24-26,36-3,14.52,27.82-6,46-6,46v14h-44v-11m32-49s-14-1-19,5,2,12,2,12m18-2s-16-1-20,5,2,11,2,11m18,0s-3-5-14-2-8,17.37,3,16c8-1,10,1,10,1m-20-51c-8-18-24-9-22,1,1.76,8.77,6,21,3,33s7,20,7,20"/><path class="cls-6" d="M60.17,4.32s6,2,9,12"/><path class="cls-6" d="M71.17,10.32s4,7,3,15"/></g></g></svg>