<svg xmlns="http://www.w3.org/2000/svg" viewBox="0 0 82.14 86"><defs><style>.cls-1{fill:#fff;}.cls-2{fill:#ffc5c5;}.cls-3,.cls-4{fill:none;stroke:#3d3636;stroke-linecap:round;stroke-linejoin:round;}.cls-3{stroke-width:3px;}.cls-4{stroke-width:2px;}</style></defs><title>tijera</title><g id="Capa_2" data-name="Capa 2"><g id="Capa_4" data-name="Capa 4"><path class="cls-1" d="M79.41,38.63A5.28,5.28,0,0,0,76.93,34a5.1,5.1,0,0,0-6.85,1.79l-.4.57a8,8,0,0,0-.56-.6c-.06-.21-.12-.43-.19-.65a5.9,5.9,0,0,0-.5-1.12c.77-4.52.34-9.52-4.47-11.14A4.22,4.22,0,0,0,59.2,24a46.56,46.56,0,0,0-.33-10.48c-.63-4.34-2.42-8.28-6.93-9.68a9.06,9.06,0,0,0-5.6.07,4.7,4.7,0,0,0-4.7,1.25,16.47,16.47,0,0,0-3.91,7,5.34,5.34,0,0,0,.93,4.44c-.19,1.22-.27,2.47-.38,3.71l0,.34a9.65,9.65,0,0,0-1.67,2.65c-1.48-4-3.4-7.87-5-11.67a5.22,5.22,0,0,0-4.27-3.27,13,13,0,0,0-2-1.11c-3.62-1.61-7.7,0-8.25,4.17,0,.22-.05.45-.07.68a9.88,9.88,0,0,0-2.76,9.15c-1.46,3.56.29,7.94,1.46,11.6.9,2.78,1.83,5.56,2.9,8.28.37.94.9,2,1.4,3.09l-.57.22c-3.44,1.54-4.56,5.47-5.76,8.75-1.3,3.57-.53,6.61,1.43,9.79s4.45,4.27,7,6.1v0q.07,5.59-.17,11.19c-.15,3.5,3.3,5.36,6.33,4.82,5.46-1,10.28-.16,15.74.26a101.62,101.62,0,0,0,18-.32,5.37,5.37,0,0,0,4.77-5.71,6.25,6.25,0,0,0,.08-.86,4.93,4.93,0,0,0,.28-1.1,44.18,44.18,0,0,0,.09-11.08c0-.19-.08-.36-.12-.54,3.22-1.47,5.31-5.82,6.36-9a15.43,15.43,0,0,0,.78-5,13,13,0,0,0,5-6.8,4.66,4.66,0,0,0,.1-2.1A4.87,4.87,0,0,0,79.41,38.63Z"/></g><g id="Capa_6" data-name="Capa 6"><ellipse class="cls-2" cx="24.25" cy="18.5" rx="5.5" ry="6.5" transform="translate(-3.81 6.55) rotate(-14.27)"/><ellipse class="cls-2" cx="48.74" cy="12.87" rx="6.5" ry="5.5" transform="translate(31.15 60.12) rotate(-84.37)"/><path class="cls-2" d="M50.53,40.54A7.35,7.35,0,0,1,50,37.35a9.49,9.49,0,0,0-4.84-2c-4.51-.45-8.69,2.47-10.74,7,4.44.81,5.88,5.72,4.37,9.24a6.79,6.79,0,0,1-2.22,6,9.62,9.62,0,0,0,6.09,3.1c5.92.59,11.28-4.61,12-11.61a14.47,14.47,0,0,0-.05-3.23A6.14,6.14,0,0,1,50.53,40.54Z"/><path class="cls-2" d="M56.76,46.25a6,6,0,0,1-6.23-5.69,7.41,7.41,0,0,1-.33-4.74c-3.9-1.58-8.16-1.19-11.13,1.43A9.62,9.62,0,0,0,36,42.91c3.16,1.57,4.07,5.65,2.76,8.7a7.62,7.62,0,0,1,0,1.51c.2.27.42.54.65.8,4.65,5.27,12,6.35,16.5,2.41a10.5,10.5,0,0,0,2.92-10.39A6.85,6.85,0,0,1,56.76,46.25Z"/><circle class="cls-1" cx="24.75" cy="14" r="1"/><circle class="cls-1" cx="49.75" cy="9" r="1"/></g><g id="Capa_3" data-name="Capa 3"><path class="cls-3" d="M74.76,52.35C73.16,65.2,67.25,65.5,67.25,65.5v19h-45V69S5.82,60.81,17.2,46c9.6-12.5,19.72-3.5,21.23-1,5.27,8.68-4,17-4,17M59.25,22.5s4-19-9-20c-15.08-1.16-13,23-13,23s-5-24-18-17c-11.27,6.07,0,34,0,34M66.8,23.7c-4.3-2.89-10.94-.39-14.83,5.58s-3.56,13.14.74,16,10.94.39,14.83-5.58S71.1,26.58,66.8,23.7ZM61.64,45.55c-.22,3.14.82,6,3.1,7.47,3.9,2.57,9.91.34,13.44-5s3.23-11.74-.67-14.32a7.51,7.51,0,0,0-6.86-.47M42.25,69.5s9,3,14-4"/><path class="cls-4" d="M13.75,1s-7,4-7,12"/><path class="cls-4" d="M4,4.1s-4.47,3-2.57,11.8"/></g></g></svg>